<?xml version="1.0" encoding="UTF-8"?>
<svg width="65px" height="65px" viewBox="0 0 65 65" version="1.1" xmlns="http://www.w3.org/2000/svg" xmlns:xlink="http://www.w3.org/1999/xlink">
    <title>couchbase-icon</title>
    <g id="Page-1" stroke="none" stroke-width="1" fill="none" fill-rule="evenodd">
        <g id="couchbase-icon" transform="translate(0.000000, 0.000000)" fill="#ED2226" fill-rule="nonzero">
            <path d="M32.01086,-4.21994769e-16 C14.3344397,0.002397778 0.00479669501,14.3300962 1.44683921e-15,32.006516 C0.00479574679,49.6812398 14.3317922,64.0082362 32.006516,64.013032 C49.6812398,64.0082362 64.0082362,49.6812398 64.013032,32.006516 C64.0082375,14.3334878 49.6838873,0.00719325556 32.01086,-4.21994769e-16 Z M53.6222086,37.6189507 C53.6222086,39.5520261 52.5101473,41.246182 50.3338085,41.6327971 C46.5632254,42.3104595 38.6311003,42.6970746 32.01086,42.6970746 C25.3906197,42.6970746 17.4584945,42.2626756 13.6879115,41.6327971 C11.7233712,41.3383511 10.3016799,39.6030237 10.3995113,37.6189507 L10.3995113,25.1430123 C10.3995113,23.2099369 11.8981877,21.4202131 13.6879115,21.1291658 C14.7999729,20.9336863 17.4107106,20.6947668 19.4436978,20.6947668 C20.216928,20.6947668 20.8468065,21.2768615 20.8468065,22.1934433 L20.8468065,30.9465825 L32.0629879,30.7033191 L43.2791692,30.9465825 L43.2791692,22.2412272 C43.2791692,21.3724292 43.9090477,20.7425507 44.6822779,20.7425507 C46.7109211,20.7425507 49.3303468,20.9380303 50.4380642,21.1769497 C52.2755718,21.467997 53.7264644,23.2620648 53.7264644,25.1907962 L53.6308966,37.6667345 L53.6222086,37.6189507 Z" id="Shape"></path>
        </g>
    </g>
</svg>