<?xml version="1.0" encoding="UTF-8"?>
<svg width="46px" height="22px" viewBox="0 0 46 22" version="1.1" xmlns="http://www.w3.org/2000/svg" xmlns:xlink="http://www.w3.org/1999/xlink">
    <title>plane-departure</title>
    <g id="Page-1" stroke="none" stroke-width="1" fill="none" fill-rule="evenodd">
        <g id="plane-departure" fill="#000000" fill-rule="nonzero">
            <path d="M45.7197428,2.96157678 C46.2393896,3.96258589 46.096361,5.37953628 44.7803536,7.3375541 C43.6080936,9.08175747 41.8852812,10.4134571 39.964816,11.3464031 L19.0495706,21.4974329 C18.3893146,21.8178845 17.659617,21.985553 16.9192343,21.9869374 L7.53827954,22 C6.8732439,22 6.23879388,21.7327703 5.78959253,21.2636808 L0.312098196,15.5573789 C0.0528240185,15.265124 -0.0528450972,14.8756653 0.0251222829,14.4996881 C0.103089663,14.1237109 0.356169068,13.8023221 0.71243468,13.6268613 L3.59385113,12.2277861 C3.95694632,12.0520857 4.38576623,12.0520857 4.74886142,12.2277861 L9.94892329,14.7351214 L17.3670074,11.1339636 L6.14177364,4.38815226 C5.86724717,4.09898333 5.74898458,3.70410555 5.82179766,3.31975518 C5.89461074,2.93540482 6.15021127,2.60533197 6.51336065,2.42669692 L11.2390561,0.132488545 C11.652854,-0.0683855471 12.1479218,-0.0391829283 12.5327826,0.208801739 L28.2515599,5.85047807 L35.3318376,2.41294679 C37.2537402,1.48137582 39.3869515,0.940995901 41.5331001,1.07437211 C43.9415876,1.22424848 45.2015335,1.95988017 45.7197428,2.96157678 Z" id="Path"></path>
        </g>
    </g>
</svg>