<?xml version="1.0" encoding="UTF-8"?>
<svg width="102px" height="72px" viewBox="0 0 102 72" version="1.1" xmlns="http://www.w3.org/2000/svg" xmlns:xlink="http://www.w3.org/1999/xlink">
    <title>Group</title>
    <g id="Page-1" stroke="none" stroke-width="1" fill="none" fill-rule="evenodd">
        <g id="Group" transform="translate(0.000000, 0.000000)" fill-rule="nonzero">
            <g id="plane-departure" transform="translate(56.000000, 0.000000)" fill="#000000">
                <path d="M45.7197428,2.96157678 C46.2393896,3.96258589 46.096361,5.37953628 44.7803536,7.3375541 C43.6080936,9.08175747 41.8852812,10.4134571 39.964816,11.3464031 L19.0495706,21.4974329 C18.3893146,21.8178845 17.659617,21.985553 16.9192343,21.9869374 L7.53827954,22 C6.8732439,22 6.23879388,21.7327703 5.78959253,21.2636808 L0.312098196,15.5573789 C0.0528240185,15.265124 -0.0528450972,14.8756653 0.0251222829,14.4996881 C0.103089663,14.1237109 0.356169068,13.8023221 0.71243468,13.6268613 L3.59385113,12.2277861 C3.95694632,12.0520857 4.38576623,12.0520857 4.74886142,12.2277861 L9.94892329,14.7351214 L17.3670074,11.1339636 L6.14177364,4.38815226 C5.86724717,4.09898333 5.74898458,3.70410555 5.82179766,3.31975518 C5.89461074,2.93540482 6.15021127,2.60533197 6.51336065,2.42669692 L11.2390561,0.132488545 C11.652854,-0.0683855471 12.1479218,-0.0391829283 12.5327826,0.208801739 L28.2515599,5.85047807 L35.3318376,2.41294679 C37.2537402,1.48137582 39.3869515,0.940995901 41.5331001,1.07437211 C43.9415876,1.22424848 45.2015335,1.95988017 45.7197428,2.96157678 Z" id="Path"></path>
            </g>
            <g id="couchbase-icon" transform="translate(-0.000000, 7.000000)" fill="#ED2226">
                <path d="M32.01086,-4.21994769e-16 C14.3344397,0.002397778 0.00479669501,14.3300962 1.44683921e-15,32.006516 C0.00479574679,49.6812398 14.3317922,64.0082362 32.006516,64.013032 C49.6812398,64.0082362 64.0082362,49.6812398 64.013032,32.006516 C64.0082375,14.3334878 49.6838873,0.00719325556 32.01086,-4.21994769e-16 Z M53.6222086,37.6189507 C53.6222086,39.5520261 52.5101473,41.246182 50.3338085,41.6327971 C46.5632254,42.3104595 38.6311003,42.6970746 32.01086,42.6970746 C25.3906197,42.6970746 17.4584945,42.2626756 13.6879115,41.6327971 C11.7233712,41.3383511 10.3016799,39.6030237 10.3995113,37.6189507 L10.3995113,25.1430123 C10.3995113,23.2099369 11.8981877,21.4202131 13.6879115,21.1291658 C14.7999729,20.9336863 17.4107106,20.6947668 19.4436978,20.6947668 C20.216928,20.6947668 20.8468065,21.2768615 20.8468065,22.1934433 L20.8468065,30.9465825 L32.0629879,30.7033191 L43.2791692,30.9465825 L43.2791692,22.2412272 C43.2791692,21.3724292 43.9090477,20.7425507 44.6822779,20.7425507 C46.7109211,20.7425507 49.3303468,20.9380303 50.4380642,21.1769497 C52.2755718,21.467997 53.7264644,23.2620648 53.7264644,25.1907962 L53.6308966,37.6667345 L53.6222086,37.6189507 Z" id="Shape"></path>
            </g>
        </g>
    </g>
</svg>